<svg width="200" height="28" viewBox="0 0 200 28" fill="none" xmlns="http://www.w3.org/2000/svg">
<path d="M29.7119 27.6538L36.5562 7.45733H40.0661L46.9324 27.6538H43.2031L37.5873 9.8232H38.9912L33.3535 27.6538H29.7119ZM33.1341 23.326L34.0774 19.7772H41.9746L42.9399 23.326H33.1341Z" fill="#003B7A"/>
<path d="M48.5255 27.6538V7.45733H51.4651L60.525 21.9988H59.0991V7.45733H62.609V27.6538H59.6914L50.6095 13.1123H52.0354V27.6538H48.5255Z" fill="#003B7A"/>
<path d="M73.591 28C72.4064 28 71.3022 27.7499 70.2785 27.2498C69.2694 26.7305 68.3919 25.9996 67.6461 25.0571C66.9002 24.1146 66.3152 23.0086 65.8911 21.7391C65.4816 20.4696 65.2769 19.0751 65.2769 17.5556C65.2769 16.036 65.4816 14.6415 65.8911 13.372C66.3152 12.1025 66.9002 10.9965 67.6461 10.054C68.4065 9.11152 69.2913 8.39022 70.3004 7.89012C71.3095 7.37078 72.4137 7.11111 73.6129 7.11111C74.9437 7.11111 76.1429 7.41887 77.2105 8.03438C78.2928 8.63065 79.1995 9.51545 79.9307 10.6888L77.6493 13.4586C77.1228 12.6699 76.5378 12.0833 75.8943 11.6986C75.2508 11.2947 74.5489 11.0927 73.7884 11.0927C73.0718 11.0927 72.4137 11.2466 71.8141 11.5543C71.2145 11.8621 70.6953 12.3045 70.2566 12.8815C69.8178 13.4586 69.4741 14.1414 69.2255 14.93C68.9915 15.7186 68.8745 16.5938 68.8745 17.5556C68.8745 18.5173 68.9915 19.3925 69.2255 20.1811C69.4741 20.9697 69.8178 21.6525 70.2566 22.2296C70.6953 22.8066 71.2145 23.249 71.8141 23.5568C72.4137 23.8645 73.0718 24.0184 73.7884 24.0184C74.5489 24.0184 75.2508 23.8261 75.8943 23.4414C76.5378 23.0374 77.1228 22.4316 77.6493 21.6237L79.9307 24.3935C79.1995 25.5668 78.2928 26.4612 77.2105 27.0767C76.1429 27.6922 74.9364 28 73.591 28Z" fill="#003B7A"/>
<path d="M92.8602 7.45733H96.414V27.6538H92.8602V7.45733ZM85.8843 27.6538H82.3306V7.45733H85.8843V27.6538ZM93.1235 19.3732H85.6211V15.4205H93.1235V19.3732Z" fill="#003B7A"/>
<path d="M107.506 28C106.292 28 105.166 27.7403 104.127 27.221C103.104 26.7017 102.212 25.9707 101.451 25.0282C100.705 24.0857 100.12 22.9797 99.6962 21.7103C99.2867 20.4408 99.0819 19.0559 99.0819 17.5556C99.0819 16.0552 99.2867 14.6703 99.6962 13.4009C100.12 12.1314 100.713 11.0254 101.473 10.0829C102.234 9.14037 103.126 8.40945 104.149 7.89012C105.173 7.37078 106.285 7.11111 107.484 7.11111C108.698 7.11111 109.809 7.37078 110.818 7.89012C111.842 8.40945 112.727 9.14037 113.472 10.0829C114.233 11.0254 114.825 12.1314 115.249 13.4009C115.673 14.6511 115.886 16.036 115.886 17.5556C115.886 19.0559 115.673 20.4504 115.249 21.7391C114.825 23.0086 114.233 24.1146 113.472 25.0571C112.727 25.9804 111.842 26.7017 110.818 27.221C109.809 27.7403 108.705 28 107.506 28ZM107.484 24.0184C108.171 24.0184 108.8 23.8645 109.37 23.5568C109.955 23.249 110.467 22.8066 110.906 22.2296C111.345 21.6525 111.681 20.9697 111.915 20.1811C112.164 19.3925 112.288 18.5173 112.288 17.5556C112.288 16.5938 112.164 15.7186 111.915 14.93C111.681 14.1414 111.345 13.4586 110.906 12.8815C110.482 12.3045 109.977 11.8621 109.392 11.5543C108.807 11.2466 108.171 11.0927 107.484 11.0927C106.796 11.0927 106.16 11.2466 105.575 11.5543C105.005 11.8621 104.5 12.3045 104.062 12.8815C103.623 13.4586 103.279 14.1414 103.031 14.93C102.797 15.7186 102.68 16.5938 102.68 17.5556C102.68 18.4981 102.797 19.3732 103.031 20.1811C103.279 20.9697 103.616 21.6525 104.04 22.2296C104.478 22.8066 104.99 23.249 105.575 23.5568C106.16 23.8645 106.796 24.0184 107.484 24.0184Z" fill="#003B7A"/>
<path d="M118.556 27.6538V7.45733H125.203C126.578 7.45733 127.763 7.75547 128.757 8.35175C129.751 8.92879 130.519 9.7655 131.06 10.8619C131.601 11.9583 131.872 13.2662 131.872 14.7858C131.872 16.2861 131.601 17.5844 131.06 18.6808C130.519 19.7579 129.751 20.585 128.757 21.1621C127.763 21.7391 126.578 22.0276 125.203 22.0276H120.531L122.11 19.9791V27.6538H118.556ZM128.318 27.6538L124.479 20.3254H128.274L132.157 27.6538H128.318ZM122.11 20.4985L120.531 18.3057H125.006C126.103 18.3057 126.922 17.998 127.463 17.3824C128.004 16.7477 128.274 15.8821 128.274 14.7858C128.274 13.6701 128.004 12.8046 127.463 12.1891C126.922 11.5736 126.103 11.2658 125.006 11.2658H120.531L122.11 9.0442V20.4985Z" fill="#003B7A"/>
<path d="M134.688 27.6538V7.45733H137.627L144.164 21.7103H142.607L149.034 7.45733H151.952L151.996 27.6538H148.661L148.639 14.1799H149.254L144.121 25.5187H142.519L137.276 14.1799H138.022V27.6538H134.688Z" fill="#003B7A"/>
<path d="M153.621 27.6538L160.465 7.45733H163.975L170.841 27.6538H167.112L161.496 9.8232H162.9L157.262 27.6538H153.621ZM157.043 23.326L157.986 19.7772H165.884L166.849 23.326H157.043Z" fill="#003B7A"/>
<path d="M172.434 27.6538V7.45733H179.081C180.456 7.45733 181.641 7.75547 182.635 8.35175C183.63 8.92879 184.397 9.7655 184.938 10.8619C185.48 11.9583 185.75 13.2662 185.75 14.7858C185.75 16.2861 185.48 17.5844 184.938 18.6808C184.397 19.7579 183.63 20.585 182.635 21.1621C181.641 21.7391 180.456 22.0276 179.081 22.0276H174.409L175.988 19.9791V27.6538H172.434ZM182.196 27.6538L178.357 20.3254H182.152L186.035 27.6538H182.196ZM175.988 20.4985L174.409 18.3057H178.884C179.981 18.3057 180.8 17.998 181.341 17.3824C181.882 16.7477 182.152 15.8821 182.152 14.7858C182.152 13.6701 181.882 12.8046 181.341 12.1891C180.8 11.5736 179.981 11.2658 178.884 11.2658H174.409L175.988 9.0442V20.4985Z" fill="#003B7A"/>
<path d="M191.532 27.6538V11.2658H186.619V7.45733H200V11.2658H195.086V27.6538H191.532Z" fill="#003B7A"/>
<path d="M16.7927 4.95496C16.7927 2.21841 14.5355 0 11.7512 0C8.96689 0 6.70974 2.21841 6.70974 4.95496V6.01802H7.97011L7.95998 4.79279C8.04636 2.80815 9.71066 1.22523 11.7512 1.22523C13.7918 1.22523 15.4561 2.80815 15.5425 4.79279L15.5323 6.01802H16.7927V4.95496Z" fill="#003366"/>
<path d="M11.8491 10.1189C12.4695 10.1189 12.9723 10.5596 12.9723 11.1033V11.1313C12.9723 11.675 12.4694 12.1157 11.8491 12.1157C11.2289 12.1157 10.726 11.675 10.726 11.1313V11.1033C10.726 10.5596 11.2288 10.1189 11.8491 10.1189Z" fill="#003366"/>
<path fill-rule="evenodd" clip-rule="evenodd" d="M23.5391 28H0L2.19992 6.01802H21.7058L23.5391 28ZM11.8897 9.40541C10.7524 9.40541 9.83138 10.2018 9.83137 11.1851C9.83138 11.863 10.3059 12.5598 10.9502 12.8603L11.0189 14.2572H8.12877C7.75485 14.2573 7.45171 14.5193 7.45171 14.8426C7.45172 15.1659 7.75485 15.428 8.12877 15.428H10.9521L10.6284 21.5268C9.06783 23.4564 7.44697 20.7029 6.31874 19.5861L7.06623 18.7547L4.71517 17.1534L4.47316 20.6025L5.24968 19.8939C6.02832 21.67 7.58687 23.0026 8.9904 23.9306C9.78522 24.4011 10.7941 24.7712 11.6964 25.8378C12.6332 24.7099 13.6947 24.4188 14.5304 23.8636C16.2836 22.6985 17.5279 21.7304 18.1077 19.8632L19.0659 20.4239L18.7487 16.9684L16.3266 19.1239L17.1106 19.6791C16.4987 20.7057 14.0185 23.5753 12.8365 21.5882L12.4655 15.428H15.4781C15.852 15.428 16.1552 15.1659 16.1552 14.8426C16.1552 14.5193 15.852 14.2572 15.4781 14.2572H12.3891L12.5085 12.8829C13.3434 12.6557 13.948 11.9814 13.9481 11.1851C13.948 10.2018 13.0269 9.40541 11.8897 9.40541ZM7.66304 7.63964C7.56179 7.63964 7.47971 7.72031 7.47971 7.81982V8.36036C7.47971 8.51958 7.34839 8.64865 7.18639 8.64865C7.02439 8.64865 6.89307 8.51958 6.89307 8.36036V7.81982C6.89307 7.72031 6.81099 7.63964 6.70974 7.63964C6.60849 7.63964 6.52642 7.72031 6.52642 7.81982V8.36036C6.52642 8.7186 6.8219 9.00901 7.18639 9.00901C7.55088 9.00901 7.84637 8.7186 7.84637 8.36036V7.81982C7.84637 7.72031 7.76429 7.63964 7.66304 7.63964ZM16.7194 7.63964C16.6181 7.63964 16.536 7.72031 16.536 7.81982V8.36036C16.536 8.51958 16.4047 8.64865 16.2427 8.64865C16.0807 8.64865 15.9494 8.51958 15.9494 8.36036V7.81982C15.9494 7.72031 15.8673 7.63964 15.7661 7.63964C15.6648 7.63964 15.5827 7.72031 15.5827 7.81982V8.36036C15.5827 8.7186 15.8782 9.00901 16.2427 9.00901C16.6072 9.00901 16.9027 8.7186 16.9027 8.36036V7.81982C16.9027 7.72031 16.8206 7.63964 16.7194 7.63964Z" fill="#003366"/>
</svg>
