<svg width="524" height="624" viewBox="0 0 524 624" fill="none" xmlns="http://www.w3.org/2000/svg">
<path d="M373.819 110.425C373.819 49.4388 323.573 0 261.592 0C199.61 0 149.365 49.4388 149.365 110.425V134.116H177.421L177.196 106.811C179.119 62.5817 216.167 27.305 261.592 27.305C307.016 27.305 344.065 62.5817 345.988 106.811L345.762 134.116H373.819V110.425Z" fill="#003366"/>
<path d="M263.772 225.506C277.58 225.506 288.774 235.328 288.774 247.445V248.069C288.774 260.185 277.58 270.007 263.772 270.007C249.964 270.007 238.77 260.185 238.769 248.069V247.445C238.77 235.328 249.963 225.507 263.772 225.506Z" fill="#003366"/>
<path fill-rule="evenodd" clip-rule="evenodd" d="M524 624H0L48.972 134.116H483.19L524 624ZM264.674 209.606C239.358 209.606 218.855 227.354 218.855 249.267C218.855 264.375 229.419 279.904 243.76 286.602L245.289 317.733H180.953C172.629 317.733 165.881 323.574 165.881 330.779C165.881 337.983 172.629 343.824 180.953 343.824H243.804L236.597 479.74C201.858 522.742 165.776 461.38 140.66 436.49L157.3 417.962L104.964 382.277L99.5763 459.141L116.862 443.35C134.195 482.932 168.89 512.629 200.134 533.311C217.827 543.797 240.286 552.045 260.372 575.815C281.226 550.677 304.857 544.191 323.46 531.818C362.486 505.851 390.186 484.278 403.092 442.665L424.424 455.162L417.361 378.153L363.443 426.19L380.897 438.563C367.274 461.442 312.064 525.393 285.752 481.108L277.492 343.823H344.556C352.88 343.823 359.628 337.982 359.628 330.778C359.628 323.573 352.88 317.732 344.556 317.732H275.791L278.45 287.104C297.035 282.042 310.495 267.015 310.495 249.267C310.495 227.355 289.99 209.606 264.674 209.606ZM170.586 170.255C168.332 170.255 166.505 172.053 166.505 174.27V186.317C166.505 189.865 163.581 192.741 159.975 192.741C156.369 192.741 153.445 189.865 153.445 186.317V174.27C153.445 172.053 151.618 170.255 149.365 170.255C147.111 170.255 145.283 172.053 145.283 174.27V186.317C145.283 194.3 151.861 200.772 159.975 200.772C168.089 200.772 174.667 194.3 174.667 186.317V174.27C174.667 172.053 172.84 170.255 170.586 170.255ZM372.187 170.255C369.933 170.255 368.106 172.053 368.106 174.27V186.317C368.106 189.865 365.183 192.741 361.576 192.741C357.97 192.741 355.047 189.865 355.047 186.317V174.27C355.047 172.053 353.22 170.255 350.966 170.255C348.712 170.255 346.885 172.053 346.885 174.27V186.317C346.885 194.3 353.462 200.772 361.576 200.772C369.69 200.772 376.268 194.3 376.268 186.317V174.27C376.268 172.053 374.441 170.255 372.187 170.255Z" fill="#003366"/>
</svg>
